<svg viewBox="177.35 0 124.87 81.71" xmlns="http://www.w3.org/2000/svg">
  <defs>
    <style>.cls-2{fill:#af2080;}</style>
  </defs>
  <title>turi-dog</title>
  <g data-name="Layer 2" id="Layer_2">
    <g data-name="Layer 1" id="Layer_1-2">
      <path class="cls-2" d="M300.67,0c-5.43,1.87-10.55,8.71-16.32,11.55a62.3,62.3,0,0,1-14.84,5c-4.95,1-6.71,1-9.28,1.54A64.45,64.45,0,0,0,243,24.8a37.29,37.29,0,0,1-11.89,4.73q-.55.09-1.08.14a15.59,15.59,0,0,1-10-3.12l-.88-.69a25,25,0,0,0-4-2.83q-.43-.29-.83-.59c-1.59-1.22-2.8-2.72-5.38-4-4.91-2.42-10.42-2.74-11.48-1.76-1.26,1.17-1.51,1-3.3,1.52-1.38.39-6.57-1.33-8-1.66a1.45,1.45,0,0,0-2,1.21c-.1.8-1.91,3.73-.46,6.74a6.84,6.84,0,0,0,4.67,4.11,12.56,12.56,0,0,1,3.62,2.19,5.85,5.85,0,0,0,3.79,1.83,9.84,9.84,0,0,1,2.27,1.28c3.08,2.16,4.46,4.68,7.12,9.23,0,0,5.53,4.95.64,12.91-.29.48-1,3.13-6.06,6.74s-14.23,10.77-15.62,11.41-3.56.57-4.79.81-1.24.4-1.84,1.68.86,1.2,1.4,1.28a15.69,15.69,0,0,0,5-.17c1.78-.48,4.42-1.75,5.86-2.18,1.93-.56,7.1-4.83,8.1-5.32s10.87-4,12-5.7a10.7,10.7,0,0,1,9.14-4.7c5.69.2-.27,5.76-.76,6.36-1.07,1.28-9.84,8.08-11.3,9.37s-3.16,2.25-4.16,2.17a3.75,3.75,0,0,0-3.16,1.37c-1,1.12-.45,1.76-.45,2.32s5-.09,6.35-.17a2.59,2.59,0,0,0,1.71-1,1.26,1.26,0,0,1,.78-.95c2-.91,3.7-2.39,5.71-3.3a28.11,28.11,0,0,0,5.33-2.81c1.91-1.45,4.19-1.91,6-3.48,5.39-4.66,6.11-3.82,6.17-6.07.08-3.11,17.66-16.21,22.35-12.9,1,.67,1.57,2.26,2.08,3a10.78,10.78,0,0,1,.75,3.67c-1.1,8.51-4.95,10-6.1,11.07s-2.4,0-3.48.49-1.38,1.68-2,2.65,3.57,1.35,4.73,1.35a4.68,4.68,0,0,0,3.39-1.93c.84-1.12,8.35-9.87,9.5-11.32s.27-4.57.42-5.85,3.57-7.54,4.5-8.42,2.72,1.68,3.65,2.08,5.29,2.31,7.7,4.63,6.53,3.51,8.64,5.43,4,8.24,4.35,10.56-1.22,1.93-1.53,2.81a8.83,8.83,0,0,0-.6,2.57c0,.72,2.1.72,3.34.79s3.25.15,4-.89-1.77-7.77-2.09-9-.83-6.73-.92-7.85-3.08-2.4-3.82-3.12c-6-5.87-7.3-14.13-7.8-18.06-.46-3.64-2.06-10.05-6.76-13.59-.37-.28-.62-.88.24-1,5.26-1.05,10.65-2.91,15.33-7.53,3.67-3.62,5.41-8.11,9.88-12.31C301.66.52,301.37-.19,300.67,0Z"/>
    </g>
  </g>
</svg>
